<svg xmlns="http://www.w3.org/2000/svg" xmlns:xlink="http://www.w3.org/1999/xlink" contentStyleType="text/css" data-diagram-type="DESCRIPTION" height="1142px" preserveAspectRatio="none" style="width:1370px;height:1142px;background:#FFFFFF;" version="1.1" viewBox="0 0 1370 1142" width="1370px" zoomAndPan="magnify"><defs/><g><!--cluster ???????? ??????--><g class="cluster" data-entity="&#1054;&#1089;&#1085;&#1086;&#1074;&#1085;&#1099;&#1077; &#1084;&#1086;&#1076;&#1091;&#1083;&#1080;" data-source-line="3" data-uid="ent0002" id="cluster_&#1054;&#1089;&#1085;&#1086;&#1074;&#1085;&#1099;&#1077; &#1084;&#1086;&#1076;&#1091;&#1083;&#1080;"><path d="M592.5,391 L740.1104,391 A3.75,3.75 0 0 1 742.6104,393.5 L749.6104,413.2969 L759.5,413.2969 A2.5,2.5 0 0 1 762,415.7969 L762,611.5 A2.5,2.5 0 0 1 759.5,614 L592.5,614 A2.5,2.5 0 0 1 590,611.5 L590,393.5 A2.5,2.5 0 0 1 592.5,391" fill="none" style="stroke:#000000;stroke-width:1.5;"/><line style="stroke:#000000;stroke-width:1.5;" x1="590" x2="749.6104" y1="413.2969" y2="413.2969"/><text fill="#000000" font-family="sans-serif" font-size="14" font-weight="bold" lengthAdjust="spacing" textLength="146.6104" x="594" y="405.9951">&#1054;&#1089;&#1085;&#1086;&#1074;&#1085;&#1099;&#1077; &#1084;&#1086;&#1076;&#1091;&#1083;&#1080;</text></g><!--cluster ?????????--><g class="cluster" data-entity="&#1050;&#1086;&#1085;&#1089;&#1077;&#1085;&#1089;&#1091;&#1089;" data-source-line="8" data-uid="ent0005" id="cluster_&#1050;&#1086;&#1085;&#1089;&#1077;&#1085;&#1089;&#1091;&#1089;"><path d="M527.5,663 L612.4248,663 A3.75,3.75 0 0 1 614.9248,665.5 L621.9248,685.2969 L780.5,685.2969 A2.5,2.5 0 0 1 783,687.7969 L783,881.5 A2.5,2.5 0 0 1 780.5,884 L527.5,884 A2.5,2.5 0 0 1 525,881.5 L525,665.5 A2.5,2.5 0 0 1 527.5,663" fill="none" style="stroke:#000000;stroke-width:1.5;"/><line style="stroke:#000000;stroke-width:1.5;" x1="525" x2="621.9248" y1="685.2969" y2="685.2969"/><text fill="#000000" font-family="sans-serif" font-size="14" font-weight="bold" lengthAdjust="spacing" textLength="83.9248" x="529" y="677.9951">&#1050;&#1086;&#1085;&#1089;&#1077;&#1085;&#1089;&#1091;&#1089;</text></g><!--cluster ?????????? ? ?????????--><g class="cluster" data-entity="&#1042;&#1072;&#1083;&#1080;&#1076;&#1072;&#1090;&#1086;&#1088;&#1099; &#1080; &#1088;&#1077;&#1087;&#1091;&#1090;&#1072;&#1094;&#1080;&#1103;" data-source-line="14" data-uid="ent0009" id="cluster_&#1042;&#1072;&#1083;&#1080;&#1076;&#1072;&#1090;&#1086;&#1088;&#1099; &#1080; &#1088;&#1077;&#1087;&#1091;&#1090;&#1072;&#1094;&#1080;&#1103;"><path d="M294.5,933 L501.46,933 A3.75,3.75 0 0 1 503.96,935.5 L510.96,955.2969 L660.5,955.2969 A2.5,2.5 0 0 1 663,957.7969 L663,1132.5 A2.5,2.5 0 0 1 660.5,1135 L294.5,1135 A2.5,2.5 0 0 1 292,1132.5 L292,935.5 A2.5,2.5 0 0 1 294.5,933" fill="none" style="stroke:#000000;stroke-width:1.5;"/><line style="stroke:#000000;stroke-width:1.5;" x1="292" x2="510.96" y1="955.2969" y2="955.2969"/><text fill="#000000" font-family="sans-serif" font-size="14" font-weight="bold" lengthAdjust="spacing" textLength="205.96" x="296" y="947.9951">&#1042;&#1072;&#1083;&#1080;&#1076;&#1072;&#1090;&#1086;&#1088;&#1099; &#1080; &#1088;&#1077;&#1087;&#1091;&#1090;&#1072;&#1094;&#1080;&#1103;</text></g><!--cluster ????????????--><g class="cluster" data-entity="&#1041;&#1077;&#1079;&#1086;&#1087;&#1072;&#1089;&#1085;&#1086;&#1089;&#1090;&#1100;" data-source-line="20" data-uid="ent0013" id="cluster_&#1041;&#1077;&#1079;&#1086;&#1087;&#1072;&#1089;&#1085;&#1086;&#1089;&#1090;&#1100;"><path d="M268.5,6 L379.3945,6 A3.75,3.75 0 0 1 381.8945,8.5 L388.8945,28.2969 L950.5,28.2969 A2.5,2.5 0 0 1 953,30.7969 L953,203.5 A2.5,2.5 0 0 1 950.5,206 L268.5,206 A2.5,2.5 0 0 1 266,203.5 L266,8.5 A2.5,2.5 0 0 1 268.5,6" fill="none" style="stroke:#000000;stroke-width:1.5;"/><line style="stroke:#000000;stroke-width:1.5;" x1="266" x2="388.8945" y1="28.2969" y2="28.2969"/><text fill="#000000" font-family="sans-serif" font-size="14" font-weight="bold" lengthAdjust="spacing" textLength="109.8945" x="270" y="20.9951">&#1041;&#1077;&#1079;&#1086;&#1087;&#1072;&#1089;&#1085;&#1086;&#1089;&#1090;&#1100;</text></g><!--cluster ???? (P2P)--><g class="cluster" data-entity="&#1057;&#1077;&#1090;&#1100; (P2P)" data-source-line="27" data-uid="ent0018" id="cluster_&#1057;&#1077;&#1090;&#1100; (P2P)"><path d="M907.5,527 L993.1699,527 A3.75,3.75 0 0 1 995.6699,529.5 L1002.6699,549.2969 L1115.5,549.2969 A2.5,2.5 0 0 1 1118,551.7969 L1118,881.5 A2.5,2.5 0 0 1 1115.5,884 L907.5,884 A2.5,2.5 0 0 1 905,881.5 L905,529.5 A2.5,2.5 0 0 1 907.5,527" fill="none" style="stroke:#000000;stroke-width:1.5;"/><line style="stroke:#000000;stroke-width:1.5;" x1="905" x2="1002.6699" y1="549.2969" y2="549.2969"/><text fill="#000000" font-family="sans-serif" font-size="14" font-weight="bold" lengthAdjust="spacing" textLength="84.6699" x="909" y="541.9951">&#1057;&#1077;&#1090;&#1100; (P2P)</text></g><!--cluster API--><g class="cluster" data-entity="API" data-source-line="33" data-uid="ent0022" id="cluster_API"><path d="M472.5,255 L499.8047,255 A3.75,3.75 0 0 1 502.3047,257.5 L509.3047,277.2969 L583.5,277.2969 A2.5,2.5 0 0 1 586,279.7969 L586,339.5 A2.5,2.5 0 0 1 583.5,342 L472.5,342 A2.5,2.5 0 0 1 470,339.5 L470,257.5 A2.5,2.5 0 0 1 472.5,255" fill="none" style="stroke:#000000;stroke-width:1.5;"/><line style="stroke:#000000;stroke-width:1.5;" x1="470" x2="509.3047" y1="277.2969" y2="277.2969"/><text fill="#000000" font-family="sans-serif" font-size="14" font-weight="bold" lengthAdjust="spacing" textLength="26.3047" x="474" y="269.9951">API</text></g><!--cluster ?????????--><g class="cluster" data-entity="&#1043;&#1086;&#1074;&#1077;&#1088;&#1085;&#1072;&#1085;&#1089;" data-source-line="37" data-uid="ent0024" id="cluster_&#1043;&#1086;&#1074;&#1077;&#1088;&#1085;&#1072;&#1085;&#1089;"><path d="M8.5,797 L93.5068,797 A3.75,3.75 0 0 1 96.0068,799.5 L103.0068,819.2969 L234.5,819.2969 A2.5,2.5 0 0 1 237,821.7969 L237,1017.5 A2.5,2.5 0 0 1 234.5,1020 L8.5,1020 A2.5,2.5 0 0 1 6,1017.5 L6,799.5 A2.5,2.5 0 0 1 8.5,797" fill="none" style="stroke:#000000;stroke-width:1.5;"/><line style="stroke:#000000;stroke-width:1.5;" x1="6" x2="103.0068" y1="819.2969" y2="819.2969"/><text fill="#000000" font-family="sans-serif" font-size="14" font-weight="bold" lengthAdjust="spacing" textLength="84.0068" x="10" y="811.9951">&#1043;&#1086;&#1074;&#1077;&#1088;&#1085;&#1072;&#1085;&#1089;</text></g><!--cluster ????????????--><g class="cluster" data-entity="&#1050;&#1088;&#1080;&#1087;&#1090;&#1086;&#1075;&#1088;&#1072;&#1092;&#1080;&#1103;" data-source-line="42" data-uid="ent0027" id="cluster_&#1050;&#1088;&#1080;&#1087;&#1090;&#1086;&#1075;&#1088;&#1072;&#1092;&#1080;&#1103;"><path d="M185.5,391 L304.6523,391 A3.75,3.75 0 0 1 307.1523,393.5 L314.1523,413.2969 L382.5,413.2969 A2.5,2.5 0 0 1 385,415.7969 L385,475.5 A2.5,2.5 0 0 1 382.5,478 L185.5,478 A2.5,2.5 0 0 1 183,475.5 L183,393.5 A2.5,2.5 0 0 1 185.5,391" fill="none" style="stroke:#000000;stroke-width:1.5;"/><line style="stroke:#000000;stroke-width:1.5;" x1="183" x2="314.1523" y1="413.2969" y2="413.2969"/><text fill="#000000" font-family="sans-serif" font-size="14" font-weight="bold" lengthAdjust="spacing" textLength="118.1523" x="187" y="405.9951">&#1050;&#1088;&#1080;&#1087;&#1090;&#1086;&#1075;&#1088;&#1072;&#1092;&#1080;&#1103;</text></g><!--entity blockchain--><g class="entity" data-entity="blockchain" data-source-line="4" data-uid="ent0003" id="entity_blockchain"><rect fill="#F1F1F1" height="36.2969" rx="2.5" ry="2.5" style="stroke:#181818;stroke-width:0.5;" width="90.7109" x="654.5" y="426"/><text fill="#000000" font-family="sans-serif" font-size="14" lengthAdjust="spacing" textLength="70.7109" x="664.5" y="448.9951">&#1041;&#1083;&#1086;&#1082;&#1095;&#1077;&#1081;&#1085;</text></g><!--entity txpool--><g class="entity" data-entity="txpool" data-source-line="5" data-uid="ent0004" id="entity_txpool"><rect fill="#F1F1F1" height="36.2969" rx="2.5" ry="2.5" style="stroke:#181818;stroke-width:0.5;" width="139.1914" x="606.5" y="562"/><text fill="#000000" font-family="sans-serif" font-size="14" lengthAdjust="spacing" textLength="119.1914" x="616.5" y="584.9951">&#1055;&#1091;&#1083; &#1090;&#1088;&#1072;&#1085;&#1079;&#1072;&#1082;&#1094;&#1080;&#1081;</text></g><!--entity switcher--><g class="entity" data-entity="switcher" data-source-line="9" data-uid="ent0006" id="entity_switcher"><rect fill="#F1F1F1" height="36.2969" rx="2.5" ry="2.5" style="stroke:#181818;stroke-width:0.5;" width="224.9961" x="541.5" y="698"/><text fill="#000000" font-family="sans-serif" font-size="14" lengthAdjust="spacing" textLength="204.9961" x="551.5" y="720.9951">&#1055;&#1077;&#1088;&#1077;&#1082;&#1083;&#1102;&#1095;&#1072;&#1090;&#1077;&#1083;&#1100; &#1082;&#1086;&#1085;&#1089;&#1077;&#1085;&#1089;&#1091;&#1089;&#1072;</text></g><!--entity pos--><g class="entity" data-entity="pos" data-source-line="10" data-uid="ent0007" id="entity_pos"><rect fill="#F1F1F1" height="36.2969" rx="2.5" ry="2.5" style="stroke:#181818;stroke-width:0.5;" width="45.8945" x="541" y="832"/><text fill="#000000" font-family="sans-serif" font-size="14" lengthAdjust="spacing" textLength="25.8945" x="551" y="854.9951">PoS</text></g><!--entity bft--><g class="entity" data-entity="bft" data-source-line="11" data-uid="ent0008" id="entity_bft"><rect fill="#F1F1F1" height="36.2969" rx="2.5" ry="2.5" style="stroke:#181818;stroke-width:0.5;" width="46.209" x="622" y="832"/><text fill="#000000" font-family="sans-serif" font-size="14" lengthAdjust="spacing" textLength="26.209" x="632" y="854.9951">BFT</text></g><!--entity validator--><g class="entity" data-entity="validator" data-source-line="15" data-uid="ent0010" id="entity_validator"><rect fill="#F1F1F1" height="36.2969" rx="2.5" ry="2.5" style="stroke:#181818;stroke-width:0.5;" width="100.0967" x="510" y="1083"/><text fill="#000000" font-family="sans-serif" font-size="14" lengthAdjust="spacing" textLength="80.0967" x="520" y="1105.9951">&#1042;&#1072;&#1083;&#1080;&#1076;&#1072;&#1090;&#1086;&#1088;</text></g><!--entity validator_pool--><g class="entity" data-entity="validator_pool" data-source-line="16" data-uid="ent0011" id="entity_validator_pool"><rect fill="#F1F1F1" height="36.2969" rx="2.5" ry="2.5" style="stroke:#181818;stroke-width:0.5;" width="147.7705" x="492" y="968"/><text fill="#000000" font-family="sans-serif" font-size="14" lengthAdjust="spacing" textLength="127.7705" x="502" y="990.9951">&#1055;&#1091;&#1083; &#1074;&#1072;&#1083;&#1080;&#1076;&#1072;&#1090;&#1086;&#1088;&#1086;&#1074;</text></g><!--entity reputation--><g class="entity" data-entity="reputation" data-source-line="17" data-uid="ent0012" id="entity_reputation"><rect fill="#F1F1F1" height="36.2969" rx="2.5" ry="2.5" style="stroke:#181818;stroke-width:0.5;" width="166.3301" x="308" y="1083"/><text fill="#000000" font-family="sans-serif" font-size="14" lengthAdjust="spacing" textLength="146.3301" x="318" y="1105.9951">&#1057;&#1080;&#1089;&#1090;&#1077;&#1084;&#1072; &#1088;&#1077;&#1087;&#1091;&#1090;&#1072;&#1094;&#1080;&#1080;</text></g><!--entity double_spend--><g class="entity" data-entity="double_spend" data-source-line="21" data-uid="ent0014" id="entity_double_spend"><rect fill="#F1F1F1" height="36.2969" rx="2.5" ry="2.5" style="stroke:#181818;stroke-width:0.5;" width="213.8877" x="709" y="41"/><text fill="#000000" font-family="sans-serif" font-size="14" lengthAdjust="spacing" textLength="193.8877" x="719" y="63.9951">&#1047;&#1072;&#1097;&#1080;&#1090;&#1072; &#1086;&#1090; &#1076;&#1074;&#1086;&#1081;&#1085;&#1086;&#1081; &#1090;&#1088;&#1072;&#1090;&#1099;</text></g><!--entity fiftyone--><g class="entity" data-entity="fiftyone" data-source-line="22" data-uid="ent0015" id="entity_fiftyone"><rect fill="#F1F1F1" height="36.2969" rx="2.5" ry="2.5" style="stroke:#181818;stroke-width:0.5;" width="180.6309" x="492.5" y="41"/><text fill="#000000" font-family="sans-serif" font-size="14" lengthAdjust="spacing" textLength="160.6309" x="502.5" y="63.9951">&#1047;&#1072;&#1097;&#1080;&#1090;&#1072; &#1086;&#1090; 51% &#1072;&#1090;&#1072;&#1082;&#1080;</text></g><!--entity sybil--><g class="entity" data-entity="sybil" data-source-line="23" data-uid="ent0016" id="entity_sybil"><rect fill="#F1F1F1" height="36.2969" rx="2.5" ry="2.5" style="stroke:#181818;stroke-width:0.5;" width="174.8545" x="282.5" y="41"/><text fill="#000000" font-family="sans-serif" font-size="14" lengthAdjust="spacing" textLength="154.8545" x="292.5" y="63.9951">&#1047;&#1072;&#1097;&#1080;&#1090;&#1072; &#1086;&#1090; Sybil-&#1072;&#1090;&#1072;&#1082;</text></g><!--entity auditor--><g class="entity" data-entity="auditor" data-source-line="24" data-uid="ent0017" id="entity_auditor"><rect fill="#F1F1F1" height="36.2969" rx="2.5" ry="2.5" style="stroke:#181818;stroke-width:0.5;" width="245.1143" x="400.5" y="154"/><text fill="#000000" font-family="sans-serif" font-size="14" lengthAdjust="spacing" textLength="225.1143" x="410.5" y="176.9951">&#1057;&#1080;&#1089;&#1090;&#1077;&#1084;&#1072; &#1072;&#1091;&#1076;&#1080;&#1090;&#1072; &#1073;&#1077;&#1079;&#1086;&#1087;&#1072;&#1089;&#1085;&#1086;&#1089;&#1090;&#1080;</text></g><!--entity peer_mgr--><g class="entity" data-entity="peer_mgr" data-source-line="28" data-uid="ent0019" id="entity_peer_mgr"><rect fill="#F1F1F1" height="36.2969" rx="2.5" ry="2.5" style="stroke:#181818;stroke-width:0.5;" width="146.6563" x="923.5" y="562"/><text fill="#000000" font-family="sans-serif" font-size="14" lengthAdjust="spacing" textLength="126.6563" x="933.5" y="584.9951">&#1052;&#1077;&#1085;&#1077;&#1076;&#1078;&#1077;&#1088; &#1087;&#1080;&#1088;&#1086;&#1074;</text></g><!--entity gossip--><g class="entity" data-entity="gossip" data-source-line="29" data-uid="ent0020" id="entity_gossip"><rect fill="#F1F1F1" height="36.2969" rx="2.5" ry="2.5" style="stroke:#181818;stroke-width:0.5;" width="141.8984" x="921" y="698"/><text fill="#000000" font-family="sans-serif" font-size="14" lengthAdjust="spacing" textLength="121.8984" x="931" y="720.9951">&#1055;&#1088;&#1086;&#1090;&#1086;&#1082;&#1086;&#1083; Gossip</text></g><!--entity tcp--><g class="entity" data-entity="tcp" data-source-line="30" data-uid="ent0021" id="entity_tcp"><rect fill="#F1F1F1" height="36.2969" rx="2.5" ry="2.5" style="stroke:#181818;stroke-width:0.5;" width="77.0596" x="940.5" y="832"/><text fill="#000000" font-family="sans-serif" font-size="14" lengthAdjust="spacing" textLength="57.0596" x="950.5" y="854.9951">TCP/SSL</text></g><!--entity rest_api--><g class="entity" data-entity="rest_api" data-source-line="34" data-uid="ent0023" id="entity_rest_api"><rect fill="#F1F1F1" height="36.2969" rx="2.5" ry="2.5" style="stroke:#181818;stroke-width:0.5;" width="82.6104" x="486.5" y="290"/><text fill="#000000" font-family="sans-serif" font-size="14" lengthAdjust="spacing" textLength="62.6104" x="496.5" y="312.9951">REST API</text></g><!--entity upgrade_mgr--><g class="entity" data-entity="upgrade_mgr" data-source-line="38" data-uid="ent0025" id="entity_upgrade_mgr"><rect fill="#F1F1F1" height="36.2969" rx="2.5" ry="2.5" style="stroke:#181818;stroke-width:0.5;" width="190.7822" x="22.5" y="832"/><text fill="#000000" font-family="sans-serif" font-size="14" lengthAdjust="spacing" textLength="170.7822" x="32.5" y="854.9951">&#1052;&#1077;&#1085;&#1077;&#1076;&#1078;&#1077;&#1088; &#1086;&#1073;&#1085;&#1086;&#1074;&#1083;&#1077;&#1085;&#1080;&#1081;</text></g><!--entity proposal--><g class="entity" data-entity="proposal" data-source-line="39" data-uid="ent0026" id="entity_proposal"><rect fill="#F1F1F1" height="36.2969" rx="2.5" ry="2.5" style="stroke:#181818;stroke-width:0.5;" width="189.3535" x="22.5" y="968"/><text fill="#000000" font-family="sans-serif" font-size="14" lengthAdjust="spacing" textLength="169.3535" x="32.5" y="990.9951">&#1057;&#1080;&#1089;&#1090;&#1077;&#1084;&#1072; &#1087;&#1088;&#1077;&#1076;&#1083;&#1086;&#1078;&#1077;&#1085;&#1080;&#1081;</text></g><!--entity signature--><g class="entity" data-entity="signature" data-source-line="43" data-uid="ent0028" id="entity_signature"><rect fill="#F1F1F1" height="36.2969" rx="2.5" ry="2.5" style="stroke:#181818;stroke-width:0.5;" width="170.3633" x="199" y="426"/><text fill="#000000" font-family="sans-serif" font-size="14" lengthAdjust="spacing" textLength="150.3633" x="209" y="448.9951">&#1055;&#1086;&#1076;&#1087;&#1080;&#1089;&#1100; &#1080; &#1087;&#1088;&#1086;&#1074;&#1077;&#1088;&#1082;&#1072;</text></g><!--link blockchain to txpool--><g class="link" data-entity-1="blockchain" data-entity-2="txpool" data-source-line="47" data-uid="lnk29" id="link_blockchain_txpool"><path d="M696.91,462.24 C692.3,487.97 684.7375,530.2239 680.1375,555.9139" fill="none" id="blockchain-to-txpool" style="stroke:#181818;stroke-width:1;"/><polygon fill="#181818" points="679.08,561.82,684.6037,553.6659,679.9613,556.8983,676.7289,552.2559,679.08,561.82" style="stroke:#181818;stroke-width:1;"/></g><!--link switcher to pos--><g class="link" data-entity-1="switcher" data-entity-2="pos" data-source-line="48" data-uid="lnk30" id="link_switcher_pos"><path d="M642.23,734.26 C624.99,759.55 596.4,801.4826 579.15,826.7826" fill="none" id="switcher-to-pos" style="stroke:#181818;stroke-width:1;"/><polygon fill="#181818" points="575.77,831.74,584.1449,826.5573,578.5867,827.6089,577.5351,822.0506,575.77,831.74" style="stroke:#181818;stroke-width:1;"/></g><!--link switcher to bft--><g class="link" data-entity-1="switcher" data-entity-2="bft" data-source-line="49" data-uid="lnk31" id="link_switcher_bft"><path d="M652.82,734.26 C651.1,759.55 648.307,800.4538 646.587,825.7538" fill="none" id="switcher-to-bft" style="stroke:#181818;stroke-width:1;"/><polygon fill="#181818" points="646.18,831.74,650.7812,823.032,646.5191,826.7515,642.7997,822.4894,646.18,831.74" style="stroke:#181818;stroke-width:1;"/></g><!--link pos to validator_pool--><g class="link" data-entity-1="pos" data-entity-2="validator_pool" data-source-line="52" data-uid="lnk32" id="link_pos_validator_pool"><path d="M540.84,854.35 C499.19,860.91 414.34,876.84 397,900 C366.78,940.35 427.6745,961.7136 486.0045,973.2736" fill="none" id="pos-to-validator_pool" style="stroke:#181818;stroke-width:1;"/><polygon fill="#181818" points="491.89,974.44,483.8393,968.7667,486.9854,973.468,482.2841,976.6141,491.89,974.44" style="stroke:#181818;stroke-width:1;"/><text fill="#000000" font-family="sans-serif" font-size="13" lengthAdjust="spacing" textLength="127.3657" x="398" y="913.0669">&#1074;&#1099;&#1073;&#1086;&#1088; &#1074;&#1072;&#1083;&#1080;&#1076;&#1072;&#1090;&#1086;&#1088;&#1072;</text></g><!--link bft to validator_pool--><g class="link" data-entity-1="bft" data-entity-2="validator_pool" data-source-line="53" data-uid="lnk33" id="link_bft_validator_pool"><path d="M632.35,868.16 C625.23,876.6 615.65,886.18 605,892 C589.47,900.48 577.18,886.29 566,900 C550.52,918.98 553.5264,943.3028 558.6764,962.1228" fill="none" id="bft-to-validator_pool" style="stroke:#181818;stroke-width:1;"/><polygon fill="#181818" points="560.26,967.91,561.7427,958.1734,558.9403,963.0873,554.0264,960.2849,560.26,967.91" style="stroke:#181818;stroke-width:1;"/><text fill="#000000" font-family="sans-serif" font-size="13" lengthAdjust="spacing" textLength="127.3657" x="567" y="913.0669">&#1074;&#1099;&#1073;&#1086;&#1088; &#1074;&#1072;&#1083;&#1080;&#1076;&#1072;&#1090;&#1086;&#1088;&#1072;</text></g><!--link validator_pool to validator--><g class="link" data-entity-1="validator_pool" data-entity-2="validator" data-source-line="54" data-uid="lnk34" id="link_validator_pool_validator"><path d="M565.09,1004.16 C563.96,1025.4 562.3676,1055.3684 561.2376,1076.6884" fill="none" id="validator_pool-to-validator" style="stroke:#181818;stroke-width:1;"/><polygon fill="#181818" points="560.92,1082.68,565.3907,1073.9043,561.1846,1077.687,557.402,1073.4809,560.92,1082.68" style="stroke:#181818;stroke-width:1;"/><text fill="#000000" font-family="sans-serif" font-size="13" lengthAdjust="spacing" textLength="83.3828" x="564" y="1049.0669">&#1074;&#1072;&#1083;&#1080;&#1076;&#1072;&#1090;&#1086;&#1088;&#1099;</text><text fill="#000000" font-family="sans-serif" font-size="13" lengthAdjust="spacing" textLength="26.2603" x="534.7342" y="1024.3799">1..N</text></g><!--link validator_pool to reputation--><g class="link" data-entity-1="validator_pool" data-entity-2="reputation" data-source-line="55" data-uid="lnk35" id="link_validator_pool_reputation"><path d="M491.92,996.57 C444.64,1004.37 389.58,1017.2 375,1036 C364.54,1049.48 368.7499,1063.7141 376.5399,1077.6341" fill="none" id="validator_pool-to-reputation" style="stroke:#181818;stroke-width:1;"/><polygon fill="#181818" points="379.47,1082.87,378.5654,1073.0628,377.0282,1078.5068,371.5842,1076.9696,379.47,1082.87" style="stroke:#181818;stroke-width:1;"/><text fill="#000000" font-family="sans-serif" font-size="13" lengthAdjust="spacing" textLength="177.7344" x="376" y="1049.0669">&#1074;&#1077;&#1089; = &#1073;&#1072;&#1083;&#1072;&#1085;&#1089; * &#1088;&#1077;&#1087;&#1091;&#1090;&#1072;&#1094;&#1080;&#1103;</text></g><!--link double_spend to auditor--><g class="link" data-entity-1="double_spend" data-entity-2="auditor" data-source-line="58" data-uid="lnk36" id="link_double_spend_auditor"><path d="M788.25,77.11 C764.46,91.21 728.92,110.94 696,124 C665.48,136.11 636.5452,144.7422 606.2452,152.4422" fill="none" id="double_spend-to-auditor" style="stroke:#181818;stroke-width:1;"/><polygon fill="#181818" points="600.43,153.92,610.1379,155.5801,605.276,152.6885,608.1676,147.8265,600.43,153.92" style="stroke:#181818;stroke-width:1;"/><text fill="#000000" font-family="sans-serif" font-size="13" lengthAdjust="spacing" textLength="200.8843" x="734" y="120.0669">&#1086;&#1073;&#1085;&#1072;&#1088;&#1091;&#1078;&#1077;&#1085;&#1080;&#1077; &#1076;&#1074;&#1086;&#1081;&#1085;&#1086;&#1081; &#1090;&#1088;&#1072;&#1090;&#1099;</text></g><!--link fiftyone to auditor--><g class="link" data-entity-1="fiftyone" data-entity-2="auditor" data-source-line="59" data-uid="lnk37" id="link_fiftyone_auditor"><path d="M548.81,77.05 C537.51,84.57 526.24,94.56 520,107 C512.72,121.52 513.3899,134.4393 516.4499,147.8993" fill="none" id="fiftyone-to-auditor" style="stroke:#181818;stroke-width:1;"/><polygon fill="#181818" points="517.78,153.75,519.6853,144.0872,516.6716,148.8744,511.8844,145.8607,517.78,153.75" style="stroke:#181818;stroke-width:1;"/><text fill="#000000" font-family="sans-serif" font-size="13" lengthAdjust="spacing" textLength="170.0029" x="521" y="120.0669">&#1086;&#1073;&#1085;&#1072;&#1088;&#1091;&#1078;&#1077;&#1085;&#1080;&#1077; 51% &#1072;&#1090;&#1072;&#1082;&#1080;</text></g><!--link sybil to auditor--><g class="link" data-entity-1="sybil" data-entity-2="auditor" data-source-line="60" data-uid="lnk38" id="link_sybil_auditor"><path d="M353.16,77.26 C341.94,90.89 331.09,109.9 342,124 C351.83,136.71 375.281,145.2825 407.511,152.6525" fill="none" id="sybil-to-auditor" style="stroke:#181818;stroke-width:1;"/><polygon fill="#181818" points="413.36,153.99,405.4781,148.0844,408.4858,152.8754,403.6948,155.8831,413.36,153.99" style="stroke:#181818;stroke-width:1;"/><text fill="#000000" font-family="sans-serif" font-size="13" lengthAdjust="spacing" textLength="164.6392" x="343" y="120.0669">&#1086;&#1073;&#1085;&#1072;&#1088;&#1091;&#1078;&#1077;&#1085;&#1080;&#1077; Sybil-&#1072;&#1090;&#1072;&#1082;</text></g><!--link auditor to rest_api--><g class="link" data-entity-1="auditor" data-entity-2="rest_api" data-source-line="61" data-uid="lnk39" id="link_auditor_rest_api"><path d="M473.98,190 C450.53,201.22 429.57,217.76 440,239 C450.98,261.36 468.0754,275.396 487.4554,286.856" fill="none" id="auditor-to-rest_api" style="stroke:#181818;stroke-width:1;"/><polygon fill="#181818" points="492.62,289.91,486.9091,281.8859,488.3162,287.365,482.8371,288.7721,492.62,289.91" style="stroke:#181818;stroke-width:1;"/><text fill="#000000" font-family="sans-serif" font-size="13" lengthAdjust="spacing" textLength="129.7905" x="441" y="235.0669">&#1083;&#1086;&#1075;&#1080; &#1073;&#1077;&#1079;&#1086;&#1087;&#1072;&#1089;&#1085;&#1086;&#1089;&#1090;&#1080;</text></g><!--link rest_api to auditor--><g class="link" data-entity-1="rest_api" data-entity-2="auditor" data-source-line="73" data-uid="lnk47" id="link_rest_api_auditor"><path d="M548.03,289.92 C565.18,273.11 585.56,246.46 575,222 C569.54,209.36 563.6874,202.2649 553.5474,193.9849" fill="none" id="rest_api-to-auditor" style="stroke:#181818;stroke-width:1;"/><polygon fill="#181818" points="548.9,190.19,553.3412,198.9807,552.7728,193.3524,558.4011,192.7841,548.9,190.19" style="stroke:#181818;stroke-width:1;"/><text fill="#000000" font-family="sans-serif" font-size="13" lengthAdjust="spacing" textLength="129.7905" x="578" y="235.0669">&#1083;&#1086;&#1075;&#1080; &#1073;&#1077;&#1079;&#1086;&#1087;&#1072;&#1089;&#1085;&#1086;&#1089;&#1090;&#1080;</text></g><!--link peer_mgr to gossip--><g class="link" data-entity-1="peer_mgr" data-entity-2="gossip" data-source-line="64" data-uid="lnk40" id="link_peer_mgr_gossip"><path d="M989.4,598.32 C985.77,607.53 981.83,619.17 980,630 C976.06,653.37 980.0272,674.7208 984.8272,691.9208" fill="none" id="peer_mgr-to-gossip" style="stroke:#181818;stroke-width:1;"/><polygon fill="#181818" points="986.44,697.7,987.8736,687.956,985.096,692.884,980.168,690.1064,986.44,697.7" style="stroke:#181818;stroke-width:1;"/><text fill="#000000" font-family="sans-serif" font-size="13" lengthAdjust="spacing" textLength="144.4282" x="981" y="643.0669">&#1091;&#1087;&#1088;&#1072;&#1074;&#1083;&#1077;&#1085;&#1080;&#1077; &#1087;&#1077;&#1077;&#1088;&#1072;&#1084;&#1080;</text></g><!--link gossip to tcp--><g class="link" data-entity-1="gossip" data-entity-2="tcp" data-source-line="65" data-uid="lnk41" id="link_gossip_tcp"><path d="M990.3,734.26 C987.81,759.55 983.7777,800.4688 981.2877,825.7688" fill="none" id="gossip-to-tcp" style="stroke:#181818;stroke-width:1;"/><polygon fill="#181818" points="980.7,831.74,985.5623,823.1751,981.1897,826.764,977.6007,822.3915,980.7,831.74" style="stroke:#181818;stroke-width:1;"/><text fill="#000000" font-family="sans-serif" font-size="13" lengthAdjust="spacing" textLength="121.3926" x="988" y="777.0669">&#1087;&#1077;&#1088;&#1077;&#1076;&#1072;&#1095;&#1072; &#1076;&#1072;&#1085;&#1085;&#1099;&#1093;</text></g><!--link gossip to bft--><g class="link" data-entity-1="gossip" data-entity-2="bft" data-source-line="66" data-uid="lnk42" id="link_gossip_bft"><path d="M920.75,732.76 C888.59,740.73 850.41,751.4 817,764 C761.84,784.81 705.9649,814.5481 673.5049,832.7281" fill="none" id="gossip-to-bft" style="stroke:#181818;stroke-width:1;"/><polygon fill="#181818" points="668.27,835.66,678.0769,834.752,672.6324,833.2167,674.1677,827.7722,668.27,835.66" style="stroke:#181818;stroke-width:1;"/><text fill="#000000" font-family="sans-serif" font-size="13" lengthAdjust="spacing" textLength="158.1201" x="818" y="777.0669">&#1089;&#1086;&#1086;&#1073;&#1097;&#1077;&#1085;&#1080;&#1103; &#1082;&#1086;&#1085;&#1089;&#1077;&#1085;&#1089;&#1091;&#1089;&#1072;</text></g><!--link rest_api to blockchain--><g class="link" data-entity-1="rest_api" data-entity-2="blockchain" data-source-line="69" data-uid="lnk43" id="link_rest_api_blockchain"><path d="M551.43,326.04 C571.64,340.85 601.5,363.01 627,383 C645.07,397.17 660.6059,409.9427 675.1459,422.0927" fill="none" id="rest_api-to-blockchain" style="stroke:#181818;stroke-width:1;"/><polygon fill="#181818" points="679.75,425.94,675.4087,417.0996,675.9132,422.7339,670.2789,423.2384,679.75,425.94" style="stroke:#181818;stroke-width:1;"/><text fill="#000000" font-family="sans-serif" font-size="13" lengthAdjust="spacing" textLength="98.6108" x="617" y="371.0669">&#1079;&#1072;&#1087;&#1088;&#1086;&#1089; &#1073;&#1083;&#1086;&#1082;&#1086;&#1074;</text></g><!--link rest_api to txpool--><g class="link" data-entity-1="rest_api" data-entity-2="txpool" data-source-line="70" data-uid="lnk44" id="link_rest_api_txpool"><path d="M508.49,326.27 C494.5,340.04 476.81,360.67 469,383 C453.88,426.21 444.13,447.57 469,486 C499.18,532.64 553.0831,554.6893 600.6531,566.3693" fill="none" id="rest_api-to-txpool" style="stroke:#181818;stroke-width:1;"/><polygon fill="#181818" points="606.48,567.8,598.6934,561.7693,601.6242,566.6077,596.7858,569.5386,606.48,567.8" style="stroke:#181818;stroke-width:1;"/><text fill="#000000" font-family="sans-serif" font-size="13" lengthAdjust="spacing" textLength="166.7402" x="470" y="448.5669">&#1076;&#1086;&#1073;&#1072;&#1074;&#1083;&#1077;&#1085;&#1080;&#1077; &#1090;&#1088;&#1072;&#1085;&#1079;&#1072;&#1082;&#1094;&#1080;&#1081;</text></g><!--link rest_api to switcher--><g class="link" data-entity-1="rest_api" data-entity-2="switcher" data-source-line="71" data-uid="lnk45" id="link_rest_api_switcher"><path d="M569.62,308.2 C624.42,309.7 718.83,321.68 762,383 C823.73,470.68 825.11,519.09 795,622 C783.84,660.14 750.5421,681.6854 716.4421,695.6554" fill="none" id="rest_api-to-switcher" style="stroke:#181818;stroke-width:1;"/><polygon fill="#181818" points="710.89,697.93,720.7346,698.2195,715.5168,696.0345,717.7018,690.8167,710.89,697.93" style="stroke:#181818;stroke-width:1;"/><text fill="#000000" font-family="sans-serif" font-size="13" lengthAdjust="spacing" textLength="173.1577" x="815" y="507.0669">&#1091;&#1087;&#1088;&#1072;&#1074;&#1083;&#1077;&#1085;&#1080;&#1077; &#1082;&#1086;&#1085;&#1089;&#1077;&#1085;&#1089;&#1091;&#1089;&#1086;&#1084;</text></g><!--link rest_api to validator_pool--><g class="link" data-entity-1="rest_api" data-entity-2="validator_pool" data-source-line="72" data-uid="lnk46" id="link_rest_api_validator_pool"><path d="M569.56,308.8 C711.61,309.21 1169,320.07 1169,443 C1169,443 1169,443 1169,851 C1169,958.17 807.4179,979.5207 646.2379,983.8007" fill="none" id="rest_api-to-validator_pool" style="stroke:#181818;stroke-width:1;"/><polygon fill="#181818" points="640.24,983.96,649.343,987.7197,645.2382,983.8273,649.1306,979.7225,640.24,983.96" style="stroke:#181818;stroke-width:1;"/><text fill="#000000" font-family="sans-serif" font-size="13" lengthAdjust="spacing" textLength="192.1563" x="1170" y="643.0669">&#1080;&#1085;&#1092;&#1086;&#1088;&#1084;&#1072;&#1094;&#1080;&#1103; &#1086; &#1074;&#1072;&#1083;&#1080;&#1076;&#1072;&#1090;&#1086;&#1088;&#1072;&#1093;</text></g><!--link rest_api to signature--><g class="link" data-entity-1="rest_api" data-entity-2="signature" data-source-line="74" data-uid="lnk48" id="link_rest_api_signature"><path d="M486.43,311.07 C422.96,315.2 306.52,326.92 281,358 C265.45,376.94 269.4819,401.3485 275.5419,420.1785" fill="none" id="rest_api-to-signature" style="stroke:#181818;stroke-width:1;"/><polygon fill="#181818" points="277.38,425.89,278.4305,416.0973,275.8482,421.1304,270.8152,418.5481,277.38,425.89" style="stroke:#181818;stroke-width:1;"/><text fill="#000000" font-family="sans-serif" font-size="13" lengthAdjust="spacing" textLength="142.9492" x="282" y="371.0669">&#1088;&#1077;&#1075;&#1080;&#1089;&#1090;&#1088;&#1072;&#1094;&#1080;&#1103; &#1082;&#1083;&#1102;&#1095;&#1077;&#1081;</text></g><!--link signature to rest_api--><g class="link" data-entity-1="signature" data-entity-2="rest_api" data-source-line="83" data-uid="lnk53" id="link_signature_rest_api"><path d="M198.92,430.84 C137.93,418.65 72.06,396.1 106,358 C131.05,329.88 378.7664,315.7168 480.3164,311.0268" fill="none" id="signature-to-rest_api" style="stroke:#181818;stroke-width:1;"/><polygon fill="#181818" points="486.31,310.75,477.135,307.1695,481.3153,310.9807,477.5041,315.161,486.31,310.75" style="stroke:#181818;stroke-width:1;"/><text fill="#000000" font-family="sans-serif" font-size="13" lengthAdjust="spacing" textLength="158.8882" x="107" y="371.0669">&#1087;&#1088;&#1086;&#1074;&#1077;&#1088;&#1082;&#1072; &#1087;&#1086;&#1076;&#1083;&#1080;&#1085;&#1085;&#1086;&#1089;&#1090;&#1080;</text></g><!--link upgrade_mgr to proposal--><g class="link" data-entity-1="upgrade_mgr" data-entity-2="proposal" data-source-line="77" data-uid="lnk49" id="link_upgrade_mgr_proposal"><path d="M106.6,868.36 C101.34,877.39 95.68,888.86 93,900 C87.3,923.71 95.1748,945.4252 104.0548,962.5252" fill="none" id="upgrade_mgr-to-proposal" style="stroke:#181818;stroke-width:1;"/><polygon fill="#181818" points="106.82,967.85,106.2221,958.0193,104.5157,963.4126,99.1224,961.7062,106.82,967.85" style="stroke:#181818;stroke-width:1;"/><text fill="#000000" font-family="sans-serif" font-size="13" lengthAdjust="spacing" textLength="162.5254" x="94" y="913.0669">&#1089;&#1086;&#1079;&#1076;&#1072;&#1085;&#1080;&#1077; &#1087;&#1088;&#1077;&#1076;&#1083;&#1086;&#1078;&#1077;&#1085;&#1080;&#1103;</text></g><!--link proposal to reputation--><g class="link" data-entity-1="proposal" data-entity-2="reputation" data-source-line="78" data-uid="lnk50" id="link_proposal_reputation"><path d="M110.35,1004.23 C105.92,1018.91 102.75,1039.68 114,1053 C138.47,1081.97 229.4304,1092.7373 301.7704,1096.9973" fill="none" id="proposal-to-reputation" style="stroke:#181818;stroke-width:1;"/><polygon fill="#181818" points="307.76,1097.35,299.0107,1092.8278,302.7686,1097.0561,298.5404,1100.814,307.76,1097.35" style="stroke:#181818;stroke-width:1;"/><text fill="#000000" font-family="sans-serif" font-size="13" lengthAdjust="spacing" textLength="141.9844" x="115" y="1049.0669">&#1086;&#1094;&#1077;&#1085;&#1082;&#1072; &#1074;&#1072;&#1083;&#1080;&#1076;&#1072;&#1090;&#1086;&#1088;&#1086;&#1074;</text></g><!--link signature to validator--><g class="link" data-entity-1="signature" data-entity-2="validator" data-source-line="81" data-uid="lnk51" id="link_signature_validator"><path d="M283.79,462.35 C283.49,487.89 283,537.12 283,579 C283,579 283,579 283,987 C283,1088.82 391.98,1059.29 491,1083 C497.12,1084.47 497.7106,1084.5993 504.0706,1086.1493" fill="none" id="signature-to-validator" style="stroke:#181818;stroke-width:1;"/><polygon fill="#181818" points="509.9,1087.57,502.1031,1081.5527,505.0422,1086.3861,500.2088,1089.3252,509.9,1087.57" style="stroke:#181818;stroke-width:1;"/><text fill="#000000" font-family="sans-serif" font-size="13" lengthAdjust="spacing" textLength="109.0781" x="284" y="777.0669">&#1087;&#1086;&#1076;&#1087;&#1080;&#1089;&#1100; &#1073;&#1083;&#1086;&#1082;&#1086;&#1074;</text></g><!--link signature to bft--><g class="link" data-entity-1="signature" data-entity-2="bft" data-source-line="82" data-uid="lnk52" id="link_signature_bft"><path d="M295.56,462.05 C327.9,509.02 423.56,642.82 524,734 C556.22,763.25 574.36,758.1 605,789 C617.69,801.8 625.7929,813.975 633.0529,826.735" fill="none" id="signature-to-bft" style="stroke:#181818;stroke-width:1;"/><polygon fill="#181818" points="636.02,831.95,635.0459,822.1494,633.5474,827.6042,628.0926,826.1056,636.02,831.95" style="stroke:#181818;stroke-width:1;"/><text fill="#000000" font-family="sans-serif" font-size="13" lengthAdjust="spacing" textLength="138.0425" x="440" y="643.0669">&#1087;&#1086;&#1076;&#1087;&#1080;&#1089;&#1100; &#1089;&#1086;&#1086;&#1073;&#1097;&#1077;&#1085;&#1080;&#1081;</text></g><!--link blockchain to switcher--><g class="link" data-entity-1="blockchain" data-entity-2="switcher" data-source-line="86" data-uid="lnk54" id="link_blockchain_switcher"><path d="M720.81,462.01 C735.72,475.63 754.61,496.2 763,519 C778.81,561.96 782.18,580.43 763,622 C747.32,655.99 717.5342,679.0551 691.4242,694.8451" fill="none" id="blockchain-to-switcher" style="stroke:#181818;stroke-width:1;"/><polygon fill="#181818" points="686.29,697.95,696.0612,696.7155,690.5685,695.3626,691.9213,689.8699,686.29,697.95" style="stroke:#181818;stroke-width:1;"/></g><!--link txpool to switcher--><g class="link" data-entity-1="txpool" data-entity-2="switcher" data-source-line="87" data-uid="lnk55" id="link_txpool_switcher"><path d="M673.17,598.24 C668.94,623.97 662.0126,666.2093 657.7926,691.8993" fill="none" id="txpool-to-switcher" style="stroke:#181818;stroke-width:1;"/><polygon fill="#181818" points="656.82,697.82,662.2259,689.5874,657.6305,692.8861,654.3317,688.2906,656.82,697.82" style="stroke:#181818;stroke-width:1;"/></g><!--link validator_pool to switcher--><g class="link" data-entity-1="validator_pool" data-entity-2="switcher" data-source-line="88" data-uid="lnk56" id="link_validator_pool_switcher"><path d="M631.21,967.9 C656.98,957.6 683.98,941.55 699,917 C735.69,857.04 692.2114,775.6155 668.9514,739.2255" fill="none" id="validator_pool-to-switcher" style="stroke:#181818;stroke-width:1;"/><polygon fill="#181818" points="665.72,734.17,667.1968,743.9075,668.4128,738.3829,673.9374,739.599,665.72,734.17" style="stroke:#181818;stroke-width:1;"/></g><!--SRC=[dLRTQjH05BxFKmm1yGTQgU2DeA2Y8eWiRkz4IhgRRaEtcv3DgaM4xhPMfCLIlH14Mle6s-scJVVt5MRUo7FEPBAP98l5meREv7pdRyxtJPeRJiEpV6kJLTnDpstOZQ0SRDLjvjkLm6hKwhPXU5PbmwhPpEJ7eit7VC9xV2psUSZu21PziSE7F3BP9uEnj_m85XC-45zvoA_u-1spccorxbOsAkkMqo2J4qGmqH7Rl0l-Bk4v47iyubTa7NpqNBTkV4v7_Wq-nn0znAVO4MqLxeI7u2Ra0puKto5eLtHWDHG73BOo6Dub_yqFJb1Pjtt4bzmoxNbk4vTFdY_BXDS2FVuFo16Av7qAC17ROf_nY57eAVZkm3vK80vLNZa0-NrlrPsg5RX-gW_GpOmfTbWtNw6E8EOKWhIfnX7lvkBpY72-xRK2At3SXbx54LXVWlSfMDD9eYjne7B-1TlVm3yuO_2kmo2b7fXVqQ5VnIS6ptsAKdLRgtLxfUdPZMen_lxI3KP5mG77gQqvQy4Mp5aneBorwjGN54IU5cuLb0v6Ev1V33uhgYmEQRMg3hPSQyKfp0sKpcwLxfLkgmRymLc1NvzVu5WnS1UbZiEpRNzbiwOERnjJnbc7tv2zS9jDnoEx6lsBLijFItVBvLToh2kUbiBZqiiuxfjdvMK6o_Zici6AvJbwkZ-9TJZgO-JCRFvpAK-W5vAZGtgbMDNoQhvLjPFyCzsSqYZrYRmN6j3pNM27bIKas4U0mWQSqrZifiV_18M1sjT6AaOoWAfXe9Zer1fMqF9jz7sJBS0VouaCB7lY44ut8WDZ9YQmVgJKGf6Qzf3DsWRoEGcGqnBAhrV0S8e7piY7JaRs09hGWmJFqBQ8n5tJWB3_2yr0pAN5nTUcxapwoQUT0oDg9WanB8Iw7o9n44yZnUuKwTciRtFKGtOfBGOKC6OTHPCpsONaTfBX2kUhYsaebRYc9rrdJ8CquvfONN9CGo5aqoGN2OxCECT9cQCrgKufSP7p4wi6UPJIWFuWYIbTW3EYXYWu8J6a2wm4Zx4vpNc5O6WHKxMBrnrs4IzHu8hueW5m-31E6rA5qa5eAOeuBBmPPzc34Cd4a-h9sunrc0NUsSHePC-PlFAHiwQEakGaH9_whvTRz0cGyP3GU6xByiLC-2ZZfO204PZl4jj6QjP1F0lPY8tLtAMdwjzZeTUZ98yAmeCybq9CWVRK-SYFcH3RaKnLxWwGnvGITYb-iLudXtyPZuWSiBpE8yaJK85MJ20jD1pWj1L-hAIId7Clo5HdnUU5RAhV6DfCwRXui3E8x9nZwtISnkRCTSHYRrZQk93Jn-2QzEbwrrBoaHbJGDihq6VrxYy0]--></g></svg>